<svg width="287" height="287" viewBox="0 0 287 287" fill="none" xmlns="http://www.w3.org/2000/svg">
<path d="M84.4153 14.8685H77.2305V22.0534H84.4153V14.8685Z" fill="white"/>
<path d="M105.343 14.8685H98.1577V22.0534H105.343V14.8685Z" fill="white"/>
<path d="M112.318 14.8685H105.133V22.0534H112.318V14.8685Z" fill="white"/>
<path d="M119.294 14.8685H112.109V22.0534H119.294V14.8685Z" fill="white"/>
<path d="M126.269 14.8685H119.084V22.0534H126.269V14.8685Z" fill="white"/>
<path d="M147.196 14.8685H140.011V22.0534H147.196V14.8685Z" fill="white"/>
<path d="M161.147 14.8685H153.962V22.0534H161.147V14.8685Z" fill="white"/>
<path d="M168.123 14.8685H160.938V22.0534H168.123V14.8685Z" fill="white"/>
<path d="M175.098 14.8685H167.914V22.0534H175.098V14.8685Z" fill="white"/>
<path d="M189.05 14.8685H181.865V22.0534H189.05V14.8685Z" fill="white"/>
<path d="M196.025 14.8685H188.84V22.0534H196.025V14.8685Z" fill="white"/>
<path d="M216.952 14.8685H209.767V22.0534H216.952V14.8685Z" fill="white"/>
<path d="M119.294 21.8441H112.109V29.029H119.294V21.8441Z" fill="white"/>
<path d="M140.221 21.8441H133.036V29.029H140.221V21.8441Z" fill="white"/>
<path d="M147.196 21.8441H140.011V29.029H147.196V21.8441Z" fill="white"/>
<path d="M154.172 21.8441H146.987V29.029H154.172V21.8441Z" fill="white"/>
<path d="M196.025 21.8441H188.84V29.029H196.025V21.8441Z" fill="white"/>
<path d="M203.001 21.8441H195.816V29.029H203.001V21.8441Z" fill="white"/>
<path d="M209.976 21.8441H202.792V29.029H209.976V21.8441Z" fill="white"/>
<path d="M216.952 21.8441H209.767V29.029H216.952V21.8441Z" fill="white"/>
<path d="M77.4398 28.8197H70.2549V36.0046H77.4398V28.8197Z" fill="white"/>
<path d="M84.4153 28.8197H77.2305V36.0046H84.4153V28.8197Z" fill="white"/>
<path d="M98.367 28.8197H91.1821V36.0046H98.367V28.8197Z" fill="white"/>
<path d="M112.318 28.8197H105.133V36.0046H112.318V28.8197Z" fill="white"/>
<path d="M119.294 28.8197H112.109V36.0046H119.294V28.8197Z" fill="white"/>
<path d="M126.269 28.8197H119.084V36.0046H126.269V28.8197Z" fill="white"/>
<path d="M133.245 28.8197H126.06V36.0046H133.245V28.8197Z" fill="white"/>
<path d="M154.172 28.8197H146.987V36.0046H154.172V28.8197Z" fill="white"/>
<path d="M161.147 28.8197H153.962V36.0046H161.147V28.8197Z" fill="white"/>
<path d="M168.123 28.8197H160.938V36.0046H168.123V28.8197Z" fill="white"/>
<path d="M175.098 28.8197H167.914V36.0046H175.098V28.8197Z" fill="white"/>
<path d="M189.05 28.8197H181.865V36.0046H189.05V28.8197Z" fill="white"/>
<path d="M203.001 28.8197H195.816V36.0046H203.001V28.8197Z" fill="white"/>
<path d="M209.976 28.8197H202.792V36.0046H209.976V28.8197Z" fill="white"/>
<path d="M77.4398 35.7954H70.2549V42.9803H77.4398V35.7954Z" fill="white"/>
<path d="M84.4153 35.7954H77.2305V42.9803H84.4153V35.7954Z" fill="white"/>
<path d="M112.318 35.7954H105.133V42.9803H112.318V35.7954Z" fill="white"/>
<path d="M126.269 35.7954H119.084V42.9803H126.269V35.7954Z" fill="white"/>
<path d="M133.245 35.7954H126.06V42.9803H133.245V35.7954Z" fill="white"/>
<path d="M140.221 35.7954H133.036V42.9803H140.221V35.7954Z" fill="white"/>
<path d="M147.196 35.7954H140.011V42.9803H147.196V35.7954Z" fill="white"/>
<path d="M154.172 35.7954H146.987V42.9803H154.172V35.7954Z" fill="white"/>
<path d="M161.147 35.7954H153.962V42.9803H161.147V35.7954Z" fill="white"/>
<path d="M175.098 35.7954H167.914V42.9803H175.098V35.7954Z" fill="white"/>
<path d="M196.025 35.7954H188.84V42.9803H196.025V35.7954Z" fill="white"/>
<path d="M203.001 35.7954H195.816V42.9803H203.001V35.7954Z" fill="white"/>
<path d="M209.976 35.7954H202.792V42.9803H209.976V35.7954Z" fill="white"/>
<path d="M77.4398 42.771H70.2549V49.9559H77.4398V42.771Z" fill="white"/>
<path d="M147.196 42.771H140.011V49.9559H147.196V42.771Z" fill="white"/>
<path d="M154.172 42.771H146.987V49.9559H154.172V42.771Z" fill="white"/>
<path d="M161.147 42.771H153.962V49.9559H161.147V42.771Z" fill="white"/>
<path d="M175.098 42.771H167.914V49.9559H175.098V42.771Z" fill="white"/>
<path d="M182.074 42.771H174.889V49.9559H182.074V42.771Z" fill="white"/>
<path d="M216.952 42.771H209.767V49.9559H216.952V42.771Z" fill="white"/>
<path d="M77.4398 49.7466H70.2549V56.9315H77.4398V49.7466Z" fill="white"/>
<path d="M84.4153 49.7466H77.2305V56.9315H84.4153V49.7466Z" fill="white"/>
<path d="M98.367 49.7466H91.1821V56.9315H98.367V49.7466Z" fill="white"/>
<path d="M105.343 49.7466H98.1577V56.9315H105.343V49.7466Z" fill="white"/>
<path d="M112.318 49.7466H105.133V56.9315H112.318V49.7466Z" fill="white"/>
<path d="M147.196 49.7466H140.011V56.9315H147.196V49.7466Z" fill="white"/>
<path d="M175.098 49.7466H167.914V56.9315H175.098V49.7466Z" fill="white"/>
<path d="M196.025 49.7466H188.84V56.9315H196.025V49.7466Z" fill="white"/>
<path d="M209.976 49.7466H202.792V56.9315H209.976V49.7466Z" fill="white"/>
<path d="M216.952 49.7466H209.767V56.9315H216.952V49.7466Z" fill="white"/>
<path d="M77.4398 56.7222H70.2549V63.907H77.4398V56.7222Z" fill="white"/>
<path d="M91.3909 56.7222H84.2061V63.907H91.3909V56.7222Z" fill="white"/>
<path d="M105.343 56.7222H98.1577V63.907H105.343V56.7222Z" fill="white"/>
<path d="M119.294 56.7222H112.109V63.907H119.294V56.7222Z" fill="white"/>
<path d="M133.245 56.7222H126.06V63.907H133.245V56.7222Z" fill="white"/>
<path d="M147.196 56.7222H140.011V63.907H147.196V56.7222Z" fill="white"/>
<path d="M161.147 56.7222H153.962V63.907H161.147V56.7222Z" fill="white"/>
<path d="M175.098 56.7222H167.914V63.907H175.098V56.7222Z" fill="white"/>
<path d="M189.05 56.7222H181.865V63.907H189.05V56.7222Z" fill="white"/>
<path d="M203.001 56.7222H195.816V63.907H203.001V56.7222Z" fill="white"/>
<path d="M216.952 56.7222H209.767V63.907H216.952V56.7222Z" fill="white"/>
<path d="M77.4398 63.6978H70.2549V70.8826H77.4398V63.6978Z" fill="white"/>
<path d="M84.4153 63.6978H77.2305V70.8826H84.4153V63.6978Z" fill="white"/>
<path d="M98.367 63.6978H91.1821V70.8826H98.367V63.6978Z" fill="white"/>
<path d="M105.343 63.6978H98.1577V70.8826H105.343V63.6978Z" fill="white"/>
<path d="M133.245 63.6978H126.06V70.8826H133.245V63.6978Z" fill="white"/>
<path d="M182.074 63.6978H174.889V70.8826H182.074V63.6978Z" fill="white"/>
<path d="M203.001 63.6978H195.816V70.8826H203.001V63.6978Z" fill="white"/>
<path d="M216.952 63.6978H209.767V70.8826H216.952V63.6978Z" fill="white"/>
<path d="M21.6351 70.6735H14.4502V77.8583H21.6351V70.6735Z" fill="white"/>
<path d="M35.5862 70.6735H28.4014V77.8583H35.5862V70.6735Z" fill="white"/>
<path d="M42.5618 70.6735H35.377V77.8583H42.5618V70.6735Z" fill="white"/>
<path d="M49.5374 70.6735H42.3525V77.8583H49.5374V70.6735Z" fill="white"/>
<path d="M56.513 70.6735H49.3281V77.8583H56.513V70.6735Z" fill="white"/>
<path d="M63.4886 70.6735H56.3037V77.8583H63.4886V70.6735Z" fill="white"/>
<path d="M84.4153 70.6735H77.2305V77.8583H84.4153V70.6735Z" fill="white"/>
<path d="M91.3909 70.6735H84.2061V77.8583H91.3909V70.6735Z" fill="white"/>
<path d="M126.269 70.6735H119.084V77.8583H126.269V70.6735Z" fill="white"/>
<path d="M147.196 70.6735H140.011V77.8583H147.196V70.6735Z" fill="white"/>
<path d="M161.147 70.6735H153.962V77.8583H161.147V70.6735Z" fill="white"/>
<path d="M168.123 70.6735H160.938V77.8583H168.123V70.6735Z" fill="white"/>
<path d="M175.098 70.6735H167.914V77.8583H175.098V70.6735Z" fill="white"/>
<path d="M182.074 70.6735H174.889V77.8583H182.074V70.6735Z" fill="white"/>
<path d="M189.05 70.6735H181.865V77.8583H189.05V70.6735Z" fill="white"/>
<path d="M196.025 70.6735H188.84V77.8583H196.025V70.6735Z" fill="white"/>
<path d="M203.001 70.6735H195.816V77.8583H203.001V70.6735Z" fill="white"/>
<path d="M230.903 70.6735H223.718V77.8583H230.903V70.6735Z" fill="white"/>
<path d="M237.879 70.6735H230.694V77.8583H237.879V70.6735Z" fill="white"/>
<path d="M244.855 70.6735H237.67V77.8583H244.855V70.6735Z" fill="white"/>
<path d="M251.83 70.6735H244.646V77.8583H251.83V70.6735Z" fill="white"/>
<path d="M258.806 70.6735H251.621V77.8583H258.806V70.6735Z" fill="white"/>
<path d="M21.6351 77.649H14.4502V84.8339H21.6351V77.649Z" fill="white"/>
<path d="M49.5374 77.649H42.3525V84.8339H49.5374V77.649Z" fill="white"/>
<path d="M77.4398 77.649H70.2549V84.8339H77.4398V77.649Z" fill="white"/>
<path d="M91.3909 77.649H84.2061V84.8339H91.3909V77.649Z" fill="white"/>
<path d="M119.294 77.649H112.109V84.8339H119.294V77.649Z" fill="white"/>
<path d="M126.269 77.649H119.084V84.8339H126.269V77.649Z" fill="white"/>
<path d="M133.245 77.649H126.06V84.8339H133.245V77.649Z" fill="white"/>
<path d="M140.221 77.649H133.036V84.8339H140.221V77.649Z" fill="white"/>
<path d="M168.123 77.649H160.938V84.8339H168.123V77.649Z" fill="white"/>
<path d="M216.952 77.649H209.767V84.8339H216.952V77.649Z" fill="white"/>
<path d="M223.928 77.649H216.743V84.8339H223.928V77.649Z" fill="white"/>
<path d="M237.879 77.649H230.694V84.8339H237.879V77.649Z" fill="white"/>
<path d="M265.782 77.649H258.597V84.8339H265.782V77.649Z" fill="white"/>
<path d="M21.6351 84.6246H14.4502V91.8095H21.6351V84.6246Z" fill="white"/>
<path d="M28.6107 84.6246H21.4258V91.8095H28.6107V84.6246Z" fill="white"/>
<path d="M35.5862 84.6246H28.4014V91.8095H35.5862V84.6246Z" fill="white"/>
<path d="M42.5618 84.6246H35.377V91.8095H42.5618V84.6246Z" fill="white"/>
<path d="M49.5374 84.6246H42.3525V91.8095H49.5374V84.6246Z" fill="white"/>
<path d="M56.513 84.6246H49.3281V91.8095H56.513V84.6246Z" fill="white"/>
<path d="M63.4886 84.6246H56.3037V91.8095H63.4886V84.6246Z" fill="white"/>
<path d="M77.4398 84.6246H70.2549V91.8095H77.4398V84.6246Z" fill="white"/>
<path d="M84.4153 84.6246H77.2305V91.8095H84.4153V84.6246Z" fill="white"/>
<path d="M91.3909 84.6246H84.2061V91.8095H91.3909V84.6246Z" fill="white"/>
<path d="M98.367 84.6246H91.1821V91.8095H98.367V84.6246Z" fill="white"/>
<path d="M112.318 84.6246H105.133V91.8095H112.318V84.6246Z" fill="white"/>
<path d="M140.221 84.6246H133.036V91.8095H140.221V84.6246Z" fill="white"/>
<path d="M161.147 84.6246H153.962V91.8095H161.147V84.6246Z" fill="white"/>
<path d="M168.123 84.6246H160.938V91.8095H168.123V84.6246Z" fill="white"/>
<path d="M175.098 84.6246H167.914V91.8095H175.098V84.6246Z" fill="white"/>
<path d="M182.074 84.6246H174.889V91.8095H182.074V84.6246Z" fill="white"/>
<path d="M189.05 84.6246H181.865V91.8095H189.05V84.6246Z" fill="white"/>
<path d="M196.025 84.6246H188.84V91.8095H196.025V84.6246Z" fill="white"/>
<path d="M203.001 84.6246H195.816V91.8095H203.001V84.6246Z" fill="white"/>
<path d="M209.976 84.6246H202.792V91.8095H209.976V84.6246Z" fill="white"/>
<path d="M230.903 84.6246H223.718V91.8095H230.903V84.6246Z" fill="white"/>
<path d="M251.83 84.6246H244.646V91.8095H251.83V84.6246Z" fill="white"/>
<path d="M265.782 84.6246H258.597V91.8095H265.782V84.6246Z" fill="white"/>
<path d="M272.757 84.6246H265.572V91.8095H272.757V84.6246Z" fill="white"/>
<path d="M35.5862 91.6002H28.4014V98.7851H35.5862V91.6002Z" fill="white"/>
<path d="M98.367 91.6002H91.1821V98.7851H98.367V91.6002Z" fill="white"/>
<path d="M105.343 91.6002H98.1577V98.7851H105.343V91.6002Z" fill="white"/>
<path d="M112.318 91.6002H105.133V98.7851H112.318V91.6002Z" fill="white"/>
<path d="M133.245 91.6002H126.06V98.7851H133.245V91.6002Z" fill="white"/>
<path d="M168.123 91.6002H160.938V98.7851H168.123V91.6002Z" fill="white"/>
<path d="M182.074 91.6002H174.889V98.7851H182.074V91.6002Z" fill="white"/>
<path d="M203.001 91.6002H195.816V98.7851H203.001V91.6002Z" fill="white"/>
<path d="M230.903 91.6002H223.718V98.7851H230.903V91.6002Z" fill="white"/>
<path d="M237.879 91.6002H230.694V98.7851H237.879V91.6002Z" fill="white"/>
<path d="M251.83 91.6002H244.646V98.7851H251.83V91.6002Z" fill="white"/>
<path d="M272.757 91.6002H265.572V98.7851H272.757V91.6002Z" fill="white"/>
<path d="M28.6107 98.5758H21.4258V105.761H28.6107V98.5758Z" fill="white"/>
<path d="M42.5618 98.5758H35.377V105.761H42.5618V98.5758Z" fill="white"/>
<path d="M63.4886 98.5758H56.3037V105.761H63.4886V98.5758Z" fill="white"/>
<path d="M70.4642 98.5758H63.2793V105.761H70.4642V98.5758Z" fill="white"/>
<path d="M91.3909 98.5758H84.2061V105.761H91.3909V98.5758Z" fill="white"/>
<path d="M98.367 98.5758H91.1821V105.761H98.367V98.5758Z" fill="white"/>
<path d="M105.343 98.5758H98.1577V105.761H105.343V98.5758Z" fill="white"/>
<path d="M112.318 98.5758H105.133V105.761H112.318V98.5758Z" fill="white"/>
<path d="M133.245 98.5758H126.06V105.761H133.245V98.5758Z" fill="white"/>
<path d="M140.221 98.5758H133.036V105.761H140.221V98.5758Z" fill="white"/>
<path d="M161.147 98.5758H153.962V105.761H161.147V98.5758Z" fill="white"/>
<path d="M175.098 98.5758H167.914V105.761H175.098V98.5758Z" fill="white"/>
<path d="M182.074 98.5758H174.889V105.761H182.074V98.5758Z" fill="white"/>
<path d="M189.05 98.5758H181.865V105.761H189.05V98.5758Z" fill="white"/>
<path d="M196.025 98.5758H188.84V105.761H196.025V98.5758Z" fill="white"/>
<path d="M203.001 98.5758H195.816V105.761H203.001V98.5758Z" fill="white"/>
<path d="M209.976 98.5758H202.792V105.761H209.976V98.5758Z" fill="white"/>
<path d="M223.928 98.5758H216.743V105.761H223.928V98.5758Z" fill="white"/>
<path d="M230.903 98.5758H223.718V105.761H230.903V98.5758Z" fill="white"/>
<path d="M237.879 98.5758H230.694V105.761H237.879V98.5758Z" fill="white"/>
<path d="M244.855 98.5758H237.67V105.761H244.855V98.5758Z" fill="white"/>
<path d="M258.806 98.5758H251.621V105.761H258.806V98.5758Z" fill="white"/>
<path d="M265.782 98.5758H258.597V105.761H265.782V98.5758Z" fill="white"/>
<path d="M272.757 98.5758H265.572V105.761H272.757V98.5758Z" fill="white"/>
<path d="M49.5374 105.552H42.3525V112.736H49.5374V105.552Z" fill="white"/>
<path d="M70.4642 105.552H63.2793V112.736H70.4642V105.552Z" fill="white"/>
<path d="M91.3909 105.552H84.2061V112.736H91.3909V105.552Z" fill="white"/>
<path d="M98.367 105.552H91.1821V112.736H98.367V105.552Z" fill="white"/>
<path d="M189.05 105.552H181.865V112.736H189.05V105.552Z" fill="white"/>
<path d="M196.025 105.552H188.84V112.736H196.025V105.552Z" fill="white"/>
<path d="M216.952 105.552H209.767V112.736H216.952V105.552Z" fill="white"/>
<path d="M237.879 105.552H230.694V112.736H237.879V105.552Z" fill="white"/>
<path d="M21.6351 112.527H14.4502V119.712H21.6351V112.527Z" fill="white"/>
<path d="M28.6107 112.527H21.4258V119.712H28.6107V112.527Z" fill="white"/>
<path d="M35.5862 112.527H28.4014V119.712H35.5862V112.527Z" fill="white"/>
<path d="M49.5374 112.527H42.3525V119.712H49.5374V112.527Z" fill="white"/>
<path d="M63.4886 112.527H56.3037V119.712H63.4886V112.527Z" fill="white"/>
<path d="M70.4642 112.527H63.2793V119.712H70.4642V112.527Z" fill="white"/>
<path d="M84.4153 112.527H77.2305V119.712H84.4153V112.527Z" fill="white"/>
<path d="M91.3909 112.527H84.2061V119.712H91.3909V112.527Z" fill="white"/>
<path d="M98.367 112.527H91.1821V119.712H98.367V112.527Z" fill="white"/>
<path d="M105.343 112.527H98.1577V119.712H105.343V112.527Z" fill="white"/>
<path d="M196.025 112.527H188.84V119.712H196.025V112.527Z" fill="white"/>
<path d="M209.976 112.527H202.792V119.712H209.976V112.527Z" fill="white"/>
<path d="M216.952 112.527H209.767V119.712H216.952V112.527Z" fill="white"/>
<path d="M223.928 112.527H216.743V119.712H223.928V112.527Z" fill="white"/>
<path d="M230.903 112.527H223.718V119.712H230.903V112.527Z" fill="white"/>
<path d="M237.879 112.527H230.694V119.712H237.879V112.527Z" fill="white"/>
<path d="M244.855 112.527H237.67V119.712H244.855V112.527Z" fill="white"/>
<path d="M251.83 112.527H244.646V119.712H251.83V112.527Z" fill="white"/>
<path d="M265.782 112.527H258.597V119.712H265.782V112.527Z" fill="white"/>
<path d="M272.757 112.527H265.572V119.712H272.757V112.527Z" fill="white"/>
<path d="M21.6351 119.503H14.4502V126.688H21.6351V119.503Z" fill="white"/>
<path d="M35.5862 119.503H28.4014V126.688H35.5862V119.503Z" fill="white"/>
<path d="M42.5618 119.503H35.377V126.688H42.5618V119.503Z" fill="white"/>
<path d="M49.5374 119.503H42.3525V126.688H49.5374V119.503Z" fill="white"/>
<path d="M70.4642 119.503H63.2793V126.688H70.4642V119.503Z" fill="white"/>
<path d="M84.4153 119.503H77.2305V126.688H84.4153V119.503Z" fill="white"/>
<path d="M91.3909 119.503H84.2061V126.688H91.3909V119.503Z" fill="white"/>
<path d="M105.343 119.503H98.1577V126.688H105.343V119.503Z" fill="white"/>
<path d="M203.001 119.503H195.816V126.688H203.001V119.503Z" fill="white"/>
<path d="M216.952 119.503H209.767V126.688H216.952V119.503Z" fill="white"/>
<path d="M223.928 119.503H216.743V126.688H223.928V119.503Z" fill="white"/>
<path d="M230.903 119.503H223.718V126.688H230.903V119.503Z" fill="white"/>
<path d="M237.879 119.503H230.694V126.688H237.879V119.503Z" fill="white"/>
<path d="M244.855 119.503H237.67V126.688H244.855V119.503Z" fill="white"/>
<path d="M265.782 119.503H258.597V126.688H265.782V119.503Z" fill="white"/>
<path d="M272.757 119.503H265.572V126.688H272.757V119.503Z" fill="white"/>
<path d="M21.6351 126.478H14.4502V133.663H21.6351V126.478Z" fill="white"/>
<path d="M28.6107 126.478H21.4258V133.663H28.6107V126.478Z" fill="white"/>
<path d="M56.513 126.478H49.3281V133.663H56.513V126.478Z" fill="white"/>
<path d="M63.4886 126.478H56.3037V133.663H63.4886V126.478Z" fill="white"/>
<path d="M91.3909 126.478H84.2061V133.663H91.3909V126.478Z" fill="white"/>
<path d="M98.367 126.478H91.1821V133.663H98.367V126.478Z" fill="white"/>
<path d="M196.025 126.478H188.84V133.663H196.025V126.478Z" fill="white"/>
<path d="M203.001 126.478H195.816V133.663H203.001V126.478Z" fill="white"/>
<path d="M209.976 126.478H202.792V133.663H209.976V126.478Z" fill="white"/>
<path d="M216.952 126.478H209.767V133.663H216.952V126.478Z" fill="white"/>
<path d="M223.928 126.478H216.743V133.663H223.928V126.478Z" fill="white"/>
<path d="M230.903 126.478H223.718V133.663H230.903V126.478Z" fill="white"/>
<path d="M237.879 126.478H230.694V133.663H237.879V126.478Z" fill="white"/>
<path d="M244.855 126.478H237.67V133.663H244.855V126.478Z" fill="white"/>
<path d="M258.806 126.478H251.621V133.663H258.806V126.478Z" fill="white"/>
<path d="M35.5862 133.454H28.4014V140.639H35.5862V133.454Z" fill="white"/>
<path d="M42.5618 133.454H35.377V140.639H42.5618V133.454Z" fill="white"/>
<path d="M56.513 133.454H49.3281V140.639H56.513V133.454Z" fill="white"/>
<path d="M70.4642 133.454H63.2793V140.639H70.4642V133.454Z" fill="white"/>
<path d="M84.4153 133.454H77.2305V140.639H84.4153V133.454Z" fill="white"/>
<path d="M98.367 133.454H91.1821V140.639H98.367V133.454Z" fill="white"/>
<path d="M189.05 133.454H181.865V140.639H189.05V133.454Z" fill="white"/>
<path d="M196.025 133.454H188.84V140.639H196.025V133.454Z" fill="white"/>
<path d="M203.001 133.454H195.816V140.639H203.001V133.454Z" fill="white"/>
<path d="M216.952 133.454H209.767V140.639H216.952V133.454Z" fill="white"/>
<path d="M223.928 133.454H216.743V140.639H223.928V133.454Z" fill="white"/>
<path d="M237.879 133.454H230.694V140.639H237.879V133.454Z" fill="white"/>
<path d="M258.806 133.454H251.621V140.639H258.806V133.454Z" fill="white"/>
<path d="M265.782 133.454H258.597V140.639H265.782V133.454Z" fill="white"/>
<path d="M28.6107 140.429H21.4258V147.614H28.6107V140.429Z" fill="white"/>
<path d="M42.5618 140.429H35.377V147.614H42.5618V140.429Z" fill="white"/>
<path d="M63.4886 140.429H56.3037V147.614H63.4886V140.429Z" fill="white"/>
<path d="M70.4642 140.429H63.2793V147.614H70.4642V140.429Z" fill="white"/>
<path d="M77.4398 140.429H70.2549V147.614H77.4398V140.429Z" fill="white"/>
<path d="M91.3909 140.429H84.2061V147.614H91.3909V140.429Z" fill="white"/>
<path d="M203.001 140.429H195.816V147.614H203.001V140.429Z" fill="white"/>
<path d="M209.976 140.429H202.792V147.614H209.976V140.429Z" fill="white"/>
<path d="M223.928 140.429H216.743V147.614H223.928V140.429Z" fill="white"/>
<path d="M244.855 140.429H237.67V147.614H244.855V140.429Z" fill="white"/>
<path d="M265.782 140.429H258.597V147.614H265.782V140.429Z" fill="white"/>
<path d="M272.757 140.429H265.572V147.614H272.757V140.429Z" fill="white"/>
<path d="M28.6107 147.405H21.4258V154.59H28.6107V147.405Z" fill="white"/>
<path d="M42.5618 147.405H35.377V154.59H42.5618V147.405Z" fill="white"/>
<path d="M70.4642 147.405H63.2793V154.59H70.4642V147.405Z" fill="white"/>
<path d="M77.4398 147.405H70.2549V154.59H77.4398V147.405Z" fill="white"/>
<path d="M84.4153 147.405H77.2305V154.59H84.4153V147.405Z" fill="white"/>
<path d="M91.3909 147.405H84.2061V154.59H91.3909V147.405Z" fill="white"/>
<path d="M98.367 147.405H91.1821V154.59H98.367V147.405Z" fill="white"/>
<path d="M189.05 147.405H181.865V154.59H189.05V147.405Z" fill="white"/>
<path d="M209.976 147.405H202.792V154.59H209.976V147.405Z" fill="white"/>
<path d="M216.952 147.405H209.767V154.59H216.952V147.405Z" fill="white"/>
<path d="M230.903 147.405H223.718V154.59H230.903V147.405Z" fill="white"/>
<path d="M237.879 147.405H230.694V154.59H237.879V147.405Z" fill="white"/>
<path d="M244.855 147.405H237.67V154.59H244.855V147.405Z" fill="white"/>
<path d="M272.757 147.405H265.572V154.59H272.757V147.405Z" fill="white"/>
<path d="M21.6351 154.381H14.4502V161.566H21.6351V154.381Z" fill="white"/>
<path d="M49.5374 154.381H42.3525V161.566H49.5374V154.381Z" fill="white"/>
<path d="M63.4886 154.381H56.3037V161.566H63.4886V154.381Z" fill="white"/>
<path d="M91.3909 154.381H84.2061V161.566H91.3909V154.381Z" fill="white"/>
<path d="M189.05 154.381H181.865V161.566H189.05V154.381Z" fill="white"/>
<path d="M196.025 154.381H188.84V161.566H196.025V154.381Z" fill="white"/>
<path d="M203.001 154.381H195.816V161.566H203.001V154.381Z" fill="white"/>
<path d="M209.976 154.381H202.792V161.566H209.976V154.381Z" fill="white"/>
<path d="M223.928 154.381H216.743V161.566H223.928V154.381Z" fill="white"/>
<path d="M230.903 154.381H223.718V161.566H230.903V154.381Z" fill="white"/>
<path d="M244.855 154.381H237.67V161.566H244.855V154.381Z" fill="white"/>
<path d="M251.83 154.381H244.646V161.566H251.83V154.381Z" fill="white"/>
<path d="M258.806 154.381H251.621V161.566H258.806V154.381Z" fill="white"/>
<path d="M21.6351 161.356H14.4502V168.541H21.6351V161.356Z" fill="white"/>
<path d="M28.6107 161.356H21.4258V168.541H28.6107V161.356Z" fill="white"/>
<path d="M77.4398 161.356H70.2549V168.541H77.4398V161.356Z" fill="white"/>
<path d="M84.4153 161.356H77.2305V168.541H84.4153V161.356Z" fill="white"/>
<path d="M98.367 161.356H91.1821V168.541H98.367V161.356Z" fill="white"/>
<path d="M216.952 161.356H209.767V168.541H216.952V161.356Z" fill="white"/>
<path d="M251.83 161.356H244.646V168.541H251.83V161.356Z" fill="white"/>
<path d="M21.6351 168.332H14.4502V175.517H21.6351V168.332Z" fill="white"/>
<path d="M28.6107 168.332H21.4258V175.517H28.6107V168.332Z" fill="white"/>
<path d="M35.5862 168.332H28.4014V175.517H35.5862V168.332Z" fill="white"/>
<path d="M49.5374 168.332H42.3525V175.517H49.5374V168.332Z" fill="white"/>
<path d="M56.513 168.332H49.3281V175.517H56.513V168.332Z" fill="white"/>
<path d="M63.4886 168.332H56.3037V175.517H63.4886V168.332Z" fill="white"/>
<path d="M70.4642 168.332H63.2793V175.517H70.4642V168.332Z" fill="white"/>
<path d="M77.4398 168.332H70.2549V175.517H77.4398V168.332Z" fill="white"/>
<path d="M91.3909 168.332H84.2061V175.517H91.3909V168.332Z" fill="white"/>
<path d="M196.025 168.332H188.84V175.517H196.025V168.332Z" fill="white"/>
<path d="M203.001 168.332H195.816V175.517H203.001V168.332Z" fill="white"/>
<path d="M209.976 168.332H202.792V175.517H209.976V168.332Z" fill="white"/>
<path d="M230.903 168.332H223.718V175.517H230.903V168.332Z" fill="white"/>
<path d="M237.879 168.332H230.694V175.517H237.879V168.332Z" fill="white"/>
<path d="M244.855 168.332H237.67V175.517H244.855V168.332Z" fill="white"/>
<path d="M251.83 168.332H244.646V175.517H251.83V168.332Z" fill="white"/>
<path d="M265.782 168.332H258.597V175.517H265.782V168.332Z" fill="white"/>
<path d="M272.757 168.332H265.572V175.517H272.757V168.332Z" fill="white"/>
<path d="M21.6351 175.308H14.4502V182.492H21.6351V175.308Z" fill="white"/>
<path d="M28.6107 175.308H21.4258V182.492H28.6107V175.308Z" fill="white"/>
<path d="M42.5618 175.308H35.377V182.492H42.5618V175.308Z" fill="white"/>
<path d="M49.5374 175.308H42.3525V182.492H49.5374V175.308Z" fill="white"/>
<path d="M56.513 175.308H49.3281V182.492H56.513V175.308Z" fill="white"/>
<path d="M84.4153 175.308H77.2305V182.492H84.4153V175.308Z" fill="white"/>
<path d="M91.3909 175.308H84.2061V182.492H91.3909V175.308Z" fill="white"/>
<path d="M98.367 175.308H91.1821V182.492H98.367V175.308Z" fill="white"/>
<path d="M105.343 175.308H98.1577V182.492H105.343V175.308Z" fill="white"/>
<path d="M216.952 175.308H209.767V182.492H216.952V175.308Z" fill="white"/>
<path d="M237.879 175.308H230.694V182.492H237.879V175.308Z" fill="white"/>
<path d="M244.855 175.308H237.67V182.492H244.855V175.308Z" fill="white"/>
<path d="M265.782 175.308H258.597V182.492H265.782V175.308Z" fill="white"/>
<path d="M21.6351 182.283H14.4502V189.468H21.6351V182.283Z" fill="white"/>
<path d="M28.6107 182.283H21.4258V189.468H28.6107V182.283Z" fill="white"/>
<path d="M35.5862 182.283H28.4014V189.468H35.5862V182.283Z" fill="white"/>
<path d="M42.5618 182.283H35.377V189.468H42.5618V182.283Z" fill="white"/>
<path d="M49.5374 182.283H42.3525V189.468H49.5374V182.283Z" fill="white"/>
<path d="M63.4886 182.283H56.3037V189.468H63.4886V182.283Z" fill="white"/>
<path d="M77.4398 182.283H70.2549V189.468H77.4398V182.283Z" fill="white"/>
<path d="M98.367 182.283H91.1821V189.468H98.367V182.283Z" fill="white"/>
<path d="M119.294 182.283H112.109V189.468H119.294V182.283Z" fill="white"/>
<path d="M147.196 182.283H140.011V189.468H147.196V182.283Z" fill="white"/>
<path d="M161.147 182.283H153.962V189.468H161.147V182.283Z" fill="white"/>
<path d="M168.123 182.283H160.938V189.468H168.123V182.283Z" fill="white"/>
<path d="M175.098 182.283H167.914V189.468H175.098V182.283Z" fill="white"/>
<path d="M182.074 182.283H174.889V189.468H182.074V182.283Z" fill="white"/>
<path d="M189.05 182.283H181.865V189.468H189.05V182.283Z" fill="white"/>
<path d="M196.025 182.283H188.84V189.468H196.025V182.283Z" fill="white"/>
<path d="M203.001 182.283H195.816V189.468H203.001V182.283Z" fill="white"/>
<path d="M216.952 182.283H209.767V189.468H216.952V182.283Z" fill="white"/>
<path d="M223.928 182.283H216.743V189.468H223.928V182.283Z" fill="white"/>
<path d="M230.903 182.283H223.718V189.468H230.903V182.283Z" fill="white"/>
<path d="M244.855 182.283H237.67V189.468H244.855V182.283Z" fill="white"/>
<path d="M258.806 182.283H251.621V189.468H258.806V182.283Z" fill="white"/>
<path d="M265.782 182.283H258.597V189.468H265.782V182.283Z" fill="white"/>
<path d="M21.6351 189.259H14.4502V196.444H21.6351V189.259Z" fill="white"/>
<path d="M35.5862 189.259H28.4014V196.444H35.5862V189.259Z" fill="white"/>
<path d="M56.513 189.259H49.3281V196.444H56.513V189.259Z" fill="white"/>
<path d="M70.4642 189.259H63.2793V196.444H70.4642V189.259Z" fill="white"/>
<path d="M77.4398 189.259H70.2549V196.444H77.4398V189.259Z" fill="white"/>
<path d="M84.4153 189.259H77.2305V196.444H84.4153V189.259Z" fill="white"/>
<path d="M98.367 189.259H91.1821V196.444H98.367V189.259Z" fill="white"/>
<path d="M119.294 189.259H112.109V196.444H119.294V189.259Z" fill="white"/>
<path d="M126.269 189.259H119.084V196.444H126.269V189.259Z" fill="white"/>
<path d="M133.245 189.259H126.06V196.444H133.245V189.259Z" fill="white"/>
<path d="M168.123 189.259H160.938V196.444H168.123V189.259Z" fill="white"/>
<path d="M203.001 189.259H195.816V196.444H203.001V189.259Z" fill="white"/>
<path d="M216.952 189.259H209.767V196.444H216.952V189.259Z" fill="white"/>
<path d="M251.83 189.259H244.646V196.444H251.83V189.259Z" fill="white"/>
<path d="M21.6351 196.234H14.4502V203.419H21.6351V196.234Z" fill="white"/>
<path d="M35.5862 196.234H28.4014V203.419H35.5862V196.234Z" fill="white"/>
<path d="M42.5618 196.234H35.377V203.419H42.5618V196.234Z" fill="white"/>
<path d="M56.513 196.234H49.3281V203.419H56.513V196.234Z" fill="white"/>
<path d="M63.4886 196.234H56.3037V203.419H63.4886V196.234Z" fill="white"/>
<path d="M70.4642 196.234H63.2793V203.419H70.4642V196.234Z" fill="white"/>
<path d="M91.3909 196.234H84.2061V203.419H91.3909V196.234Z" fill="white"/>
<path d="M112.318 196.234H105.133V203.419H112.318V196.234Z" fill="white"/>
<path d="M119.294 196.234H112.109V203.419H119.294V196.234Z" fill="white"/>
<path d="M161.147 196.234H153.962V203.419H161.147V196.234Z" fill="white"/>
<path d="M182.074 196.234H174.889V203.419H182.074V196.234Z" fill="white"/>
<path d="M189.05 196.234H181.865V203.419H189.05V196.234Z" fill="white"/>
<path d="M203.001 196.234H195.816V203.419H203.001V196.234Z" fill="white"/>
<path d="M209.976 196.234H202.792V203.419H209.976V196.234Z" fill="white"/>
<path d="M216.952 196.234H209.767V203.419H216.952V196.234Z" fill="white"/>
<path d="M230.903 196.234H223.718V203.419H230.903V196.234Z" fill="white"/>
<path d="M237.879 196.234H230.694V203.419H237.879V196.234Z" fill="white"/>
<path d="M258.806 196.234H251.621V203.419H258.806V196.234Z" fill="white"/>
<path d="M265.782 196.234H258.597V203.419H265.782V196.234Z" fill="white"/>
<path d="M272.757 196.234H265.572V203.419H272.757V196.234Z" fill="white"/>
<path d="M21.6351 203.21H14.4502V210.395H21.6351V203.21Z" fill="white"/>
<path d="M42.5618 203.21H35.377V210.395H42.5618V203.21Z" fill="white"/>
<path d="M49.5374 203.21H42.3525V210.395H49.5374V203.21Z" fill="white"/>
<path d="M70.4642 203.21H63.2793V210.395H70.4642V203.21Z" fill="white"/>
<path d="M77.4398 203.21H70.2549V210.395H77.4398V203.21Z" fill="white"/>
<path d="M84.4153 203.21H77.2305V210.395H84.4153V203.21Z" fill="white"/>
<path d="M98.367 203.21H91.1821V210.395H98.367V203.21Z" fill="white"/>
<path d="M105.343 203.21H98.1577V210.395H105.343V203.21Z" fill="white"/>
<path d="M133.245 203.21H126.06V210.395H133.245V203.21Z" fill="white"/>
<path d="M168.123 203.21H160.938V210.395H168.123V203.21Z" fill="white"/>
<path d="M182.074 203.21H174.889V210.395H182.074V203.21Z" fill="white"/>
<path d="M203.001 203.21H195.816V210.395H203.001V203.21Z" fill="white"/>
<path d="M216.952 203.21H209.767V210.395H216.952V203.21Z" fill="white"/>
<path d="M223.928 203.21H216.743V210.395H223.928V203.21Z" fill="white"/>
<path d="M230.903 203.21H223.718V210.395H230.903V203.21Z" fill="white"/>
<path d="M237.879 203.21H230.694V210.395H237.879V203.21Z" fill="white"/>
<path d="M244.855 203.21H237.67V210.395H244.855V203.21Z" fill="white"/>
<path d="M265.782 203.21H258.597V210.395H265.782V203.21Z" fill="white"/>
<path d="M21.6351 210.186H14.4502V217.37H21.6351V210.186Z" fill="white"/>
<path d="M49.5374 210.186H42.3525V217.37H49.5374V210.186Z" fill="white"/>
<path d="M63.4886 210.186H56.3037V217.37H63.4886V210.186Z" fill="white"/>
<path d="M70.4642 210.186H63.2793V217.37H70.4642V210.186Z" fill="white"/>
<path d="M77.4398 210.186H70.2549V217.37H77.4398V210.186Z" fill="white"/>
<path d="M84.4153 210.186H77.2305V217.37H84.4153V210.186Z" fill="white"/>
<path d="M98.367 210.186H91.1821V217.37H98.367V210.186Z" fill="white"/>
<path d="M105.343 210.186H98.1577V217.37H105.343V210.186Z" fill="white"/>
<path d="M119.294 210.186H112.109V217.37H119.294V210.186Z" fill="white"/>
<path d="M140.221 210.186H133.036V217.37H140.221V210.186Z" fill="white"/>
<path d="M175.098 210.186H167.914V217.37H175.098V210.186Z" fill="white"/>
<path d="M182.074 210.186H174.889V217.37H182.074V210.186Z" fill="white"/>
<path d="M189.05 210.186H181.865V217.37H189.05V210.186Z" fill="white"/>
<path d="M196.025 210.186H188.84V217.37H196.025V210.186Z" fill="white"/>
<path d="M216.952 210.186H209.767V217.37H216.952V210.186Z" fill="white"/>
<path d="M223.928 210.186H216.743V217.37H223.928V210.186Z" fill="white"/>
<path d="M230.903 210.186H223.718V217.37H230.903V210.186Z" fill="white"/>
<path d="M237.879 210.186H230.694V217.37H237.879V210.186Z" fill="white"/>
<path d="M244.855 210.186H237.67V217.37H244.855V210.186Z" fill="white"/>
<path d="M251.83 210.186H244.646V217.37H251.83V210.186Z" fill="white"/>
<path d="M258.806 210.186H251.621V217.37H258.806V210.186Z" fill="white"/>
<path d="M265.782 210.186H258.597V217.37H265.782V210.186Z" fill="white"/>
<path d="M77.4398 217.161H70.2549V224.346H77.4398V217.161Z" fill="white"/>
<path d="M84.4153 217.161H77.2305V224.346H84.4153V217.161Z" fill="white"/>
<path d="M91.3909 217.161H84.2061V224.346H91.3909V217.161Z" fill="white"/>
<path d="M98.367 217.161H91.1821V224.346H98.367V217.161Z" fill="white"/>
<path d="M105.343 217.161H98.1577V224.346H105.343V217.161Z" fill="white"/>
<path d="M112.318 217.161H105.133V224.346H112.318V217.161Z" fill="white"/>
<path d="M133.245 217.161H126.06V224.346H133.245V217.161Z" fill="white"/>
<path d="M140.221 217.161H133.036V224.346H140.221V217.161Z" fill="white"/>
<path d="M154.172 217.161H146.987V224.346H154.172V217.161Z" fill="white"/>
<path d="M161.147 217.161H153.962V224.346H161.147V217.161Z" fill="white"/>
<path d="M168.123 217.161H160.938V224.346H168.123V217.161Z" fill="white"/>
<path d="M182.074 217.161H174.889V224.346H182.074V217.161Z" fill="white"/>
<path d="M209.976 217.161H202.792V224.346H209.976V217.161Z" fill="white"/>
<path d="M216.952 217.161H209.767V224.346H216.952V217.161Z" fill="white"/>
<path d="M244.855 217.161H237.67V224.346H244.855V217.161Z" fill="white"/>
<path d="M251.83 217.161H244.646V224.346H251.83V217.161Z" fill="white"/>
<path d="M265.782 217.161H258.597V224.346H265.782V217.161Z" fill="white"/>
<path d="M84.4153 224.137H77.2305V231.322H84.4153V224.137Z" fill="white"/>
<path d="M91.3909 224.137H84.2061V231.322H91.3909V224.137Z" fill="white"/>
<path d="M112.318 224.137H105.133V231.322H112.318V224.137Z" fill="white"/>
<path d="M126.269 224.137H119.084V231.322H126.269V224.137Z" fill="white"/>
<path d="M133.245 224.137H126.06V231.322H133.245V224.137Z" fill="white"/>
<path d="M140.221 224.137H133.036V231.322H140.221V224.137Z" fill="white"/>
<path d="M161.147 224.137H153.962V231.322H161.147V224.137Z" fill="white"/>
<path d="M168.123 224.137H160.938V231.322H168.123V224.137Z" fill="white"/>
<path d="M216.952 224.137H209.767V231.322H216.952V224.137Z" fill="white"/>
<path d="M230.903 224.137H223.718V231.322H230.903V224.137Z" fill="white"/>
<path d="M244.855 224.137H237.67V231.322H244.855V224.137Z" fill="white"/>
<path d="M258.806 224.137H251.621V231.322H258.806V224.137Z" fill="white"/>
<path d="M272.757 224.137H265.572V231.322H272.757V224.137Z" fill="white"/>
<path d="M77.4398 231.112H70.2549V238.297H77.4398V231.112Z" fill="white"/>
<path d="M91.3909 231.112H84.2061V238.297H91.3909V231.112Z" fill="white"/>
<path d="M98.367 231.112H91.1821V238.297H98.367V231.112Z" fill="white"/>
<path d="M105.343 231.112H98.1577V238.297H105.343V231.112Z" fill="white"/>
<path d="M112.318 231.112H105.133V238.297H112.318V231.112Z" fill="white"/>
<path d="M119.294 231.112H112.109V238.297H119.294V231.112Z" fill="white"/>
<path d="M126.269 231.112H119.084V238.297H126.269V231.112Z" fill="white"/>
<path d="M140.221 231.112H133.036V238.297H140.221V231.112Z" fill="white"/>
<path d="M147.196 231.112H140.011V238.297H147.196V231.112Z" fill="white"/>
<path d="M154.172 231.112H146.987V238.297H154.172V231.112Z" fill="white"/>
<path d="M161.147 231.112H153.962V238.297H161.147V231.112Z" fill="white"/>
<path d="M168.123 231.112H160.938V238.297H168.123V231.112Z" fill="white"/>
<path d="M175.098 231.112H167.914V238.297H175.098V231.112Z" fill="white"/>
<path d="M182.074 231.112H174.889V238.297H182.074V231.112Z" fill="white"/>
<path d="M189.05 231.112H181.865V238.297H189.05V231.112Z" fill="white"/>
<path d="M209.976 231.112H202.792V238.297H209.976V231.112Z" fill="white"/>
<path d="M216.952 231.112H209.767V238.297H216.952V231.112Z" fill="white"/>
<path d="M244.855 231.112H237.67V238.297H244.855V231.112Z" fill="white"/>
<path d="M251.83 231.112H244.646V238.297H251.83V231.112Z" fill="white"/>
<path d="M265.782 231.112H258.597V238.297H265.782V231.112Z" fill="white"/>
<path d="M77.4398 238.088H70.2549V245.273H77.4398V238.088Z" fill="white"/>
<path d="M84.4153 238.088H77.2305V245.273H84.4153V238.088Z" fill="white"/>
<path d="M98.367 238.088H91.1821V245.273H98.367V238.088Z" fill="white"/>
<path d="M105.343 238.088H98.1577V245.273H105.343V238.088Z" fill="white"/>
<path d="M112.318 238.088H105.133V245.273H112.318V238.088Z" fill="white"/>
<path d="M126.269 238.088H119.084V245.273H126.269V238.088Z" fill="white"/>
<path d="M133.245 238.088H126.06V245.273H133.245V238.088Z" fill="white"/>
<path d="M154.172 238.088H146.987V245.273H154.172V238.088Z" fill="white"/>
<path d="M168.123 238.088H160.938V245.273H168.123V238.088Z" fill="white"/>
<path d="M189.05 238.088H181.865V245.273H189.05V238.088Z" fill="white"/>
<path d="M196.025 238.088H188.84V245.273H196.025V238.088Z" fill="white"/>
<path d="M203.001 238.088H195.816V245.273H203.001V238.088Z" fill="white"/>
<path d="M209.976 238.088H202.792V245.273H209.976V238.088Z" fill="white"/>
<path d="M216.952 238.088H209.767V245.273H216.952V238.088Z" fill="white"/>
<path d="M223.928 238.088H216.743V245.273H223.928V238.088Z" fill="white"/>
<path d="M230.903 238.088H223.718V245.273H230.903V238.088Z" fill="white"/>
<path d="M237.879 238.088H230.694V245.273H237.879V238.088Z" fill="white"/>
<path d="M244.855 238.088H237.67V245.273H244.855V238.088Z" fill="white"/>
<path d="M258.806 238.088H251.621V245.273H258.806V238.088Z" fill="white"/>
<path d="M272.757 238.088H265.572V245.273H272.757V238.088Z" fill="white"/>
<path d="M77.4398 245.064H70.2549V252.249H77.4398V245.064Z" fill="white"/>
<path d="M98.367 245.064H91.1821V252.249H98.367V245.064Z" fill="white"/>
<path d="M105.343 245.064H98.1577V252.249H105.343V245.064Z" fill="white"/>
<path d="M112.318 245.064H105.133V252.249H112.318V245.064Z" fill="white"/>
<path d="M119.294 245.064H112.109V252.249H119.294V245.064Z" fill="white"/>
<path d="M126.269 245.064H119.084V252.249H126.269V245.064Z" fill="white"/>
<path d="M147.196 245.064H140.011V252.249H147.196V245.064Z" fill="white"/>
<path d="M161.147 245.064H153.962V252.249H161.147V245.064Z" fill="white"/>
<path d="M168.123 245.064H160.938V252.249H168.123V245.064Z" fill="white"/>
<path d="M175.098 245.064H167.914V252.249H175.098V245.064Z" fill="white"/>
<path d="M189.05 245.064H181.865V252.249H189.05V245.064Z" fill="white"/>
<path d="M196.025 245.064H188.84V252.249H196.025V245.064Z" fill="white"/>
<path d="M223.928 245.064H216.743V252.249H223.928V245.064Z" fill="white"/>
<path d="M230.903 245.064H223.718V252.249H230.903V245.064Z" fill="white"/>
<path d="M244.855 245.064H237.67V252.249H244.855V245.064Z" fill="white"/>
<path d="M258.806 245.064H251.621V252.249H258.806V245.064Z" fill="white"/>
<path d="M265.782 245.064H258.597V252.249H265.782V245.064Z" fill="white"/>
<path d="M77.4398 252.039H70.2549V259.224H77.4398V252.039Z" fill="white"/>
<path d="M98.367 252.039H91.1821V259.224H98.367V252.039Z" fill="white"/>
<path d="M126.269 252.039H119.084V259.224H126.269V252.039Z" fill="white"/>
<path d="M133.245 252.039H126.06V259.224H133.245V252.039Z" fill="white"/>
<path d="M154.172 252.039H146.987V259.224H154.172V252.039Z" fill="white"/>
<path d="M168.123 252.039H160.938V259.224H168.123V252.039Z" fill="white"/>
<path d="M175.098 252.039H167.914V259.224H175.098V252.039Z" fill="white"/>
<path d="M189.05 252.039H181.865V259.224H189.05V252.039Z" fill="white"/>
<path d="M196.025 252.039H188.84V259.224H196.025V252.039Z" fill="white"/>
<path d="M203.001 252.039H195.816V259.224H203.001V252.039Z" fill="white"/>
<path d="M209.976 252.039H202.792V259.224H209.976V252.039Z" fill="white"/>
<path d="M216.952 252.039H209.767V259.224H216.952V252.039Z" fill="white"/>
<path d="M223.928 252.039H216.743V259.224H223.928V252.039Z" fill="white"/>
<path d="M258.806 252.039H251.621V259.224H258.806V252.039Z" fill="white"/>
<path d="M272.757 252.039H265.572V259.224H272.757V252.039Z" fill="white"/>
<path d="M98.367 259.015H91.1821V266.2H98.367V259.015Z" fill="white"/>
<path d="M119.294 259.015H112.109V266.2H119.294V259.015Z" fill="white"/>
<path d="M126.269 259.015H119.084V266.2H126.269V259.015Z" fill="white"/>
<path d="M147.196 259.015H140.011V266.2H147.196V259.015Z" fill="white"/>
<path d="M154.172 259.015H146.987V266.2H154.172V259.015Z" fill="white"/>
<path d="M161.147 259.015H153.962V266.2H161.147V259.015Z" fill="white"/>
<path d="M168.123 259.015H160.938V266.2H168.123V259.015Z" fill="white"/>
<path d="M175.098 259.015H167.914V266.2H175.098V259.015Z" fill="white"/>
<path d="M182.074 259.015H174.889V266.2H182.074V259.015Z" fill="white"/>
<path d="M209.976 259.015H202.792V266.2H209.976V259.015Z" fill="white"/>
<path d="M216.952 259.015H209.767V266.2H216.952V259.015Z" fill="white"/>
<path d="M230.903 259.015H223.718V266.2H230.903V259.015Z" fill="white"/>
<path d="M244.855 259.015H237.67V266.2H244.855V259.015Z" fill="white"/>
<path d="M272.757 259.015H265.572V266.2H272.757V259.015Z" fill="white"/>
<path d="M77.4398 265.99H70.2549V273.175H77.4398V265.99Z" fill="white"/>
<path d="M91.3909 265.99H84.2061V273.175H91.3909V265.99Z" fill="white"/>
<path d="M105.343 265.99H98.1577V273.175H105.343V265.99Z" fill="white"/>
<path d="M119.294 265.99H112.109V273.175H119.294V265.99Z" fill="white"/>
<path d="M126.269 265.99H119.084V273.175H126.269V265.99Z" fill="white"/>
<path d="M140.221 265.99H133.036V273.175H140.221V265.99Z" fill="white"/>
<path d="M154.172 265.99H146.987V273.175H154.172V265.99Z" fill="white"/>
<path d="M182.074 265.99H174.889V273.175H182.074V265.99Z" fill="white"/>
<path d="M189.05 265.99H181.865V273.175H189.05V265.99Z" fill="white"/>
<path d="M196.025 265.99H188.84V273.175H196.025V265.99Z" fill="white"/>
<path d="M203.001 265.99H195.816V273.175H203.001V265.99Z" fill="white"/>
<path d="M244.855 265.99H237.67V273.175H244.855V265.99Z" fill="white"/>
<path d="M251.83 265.99H244.646V273.175H251.83V265.99Z" fill="white"/>
<path d="M258.806 265.99H251.621V273.175H258.806V265.99Z" fill="white"/>
<path d="M265.782 265.99H258.597V273.175H265.782V265.99Z" fill="white"/>
<path d="M272.757 265.99H265.572V273.175H272.757V265.99Z" fill="white"/>
<path d="M14.4502 14.8685V63.6978H63.2795V14.8685H14.4502ZM56.3039 56.7222H21.4258V21.8441H56.3039V56.7222Z" fill="white"/>
<path d="M223.718 14.8685V63.6978H272.548V14.8685H223.718ZM265.572 56.7222H230.694V21.8441H265.572V56.7222Z" fill="white"/>
<path d="M14.4502 224.137V272.966H63.2795V224.137H14.4502ZM56.3039 265.991H21.4258V231.112H56.3039V265.991Z" fill="white"/>
<path d="M49.3282 28.8197H28.4014V49.7465H49.3282V28.8197Z" fill="white"/>
<path d="M258.597 28.8197H237.67V49.7465H258.597V28.8197Z" fill="white"/>
<path d="M49.3282 238.088H28.4014V259.015H49.3282V238.088Z" fill="white"/>
</svg>
