<svg width="21" height="25" viewBox="0 0 21 25" fill="none" xmlns="http://www.w3.org/2000/svg">
<path d="M4.01741 8.42189H16.7106V18.7655C16.7106 19.38 16.2124 19.8781 15.5987 19.8781H14.3273V23.0283C14.3273 23.8283 13.6892 24.4766 12.9016 24.4766C12.1119 24.4766 11.4748 23.8283 11.4748 23.0283V19.8781H9.25428V23.0283C9.25428 23.8283 8.61495 24.4766 7.82736 24.4766C7.03991 24.4766 6.40063 23.8283 6.40063 23.0283V19.8781H5.13036C4.51648 19.8781 4.01736 19.38 4.01736 18.7655L4.01741 8.42189ZM1.52998 8.33747C0.734328 8.33747 0.0898438 8.99199 0.0898438 9.79997V15.5158C0.0898438 16.3228 0.734328 16.9785 1.52998 16.9785C2.32578 16.9785 2.97012 16.3228 2.97012 15.5158V9.79997C2.97012 8.99199 2.32578 8.33747 1.52998 8.33747ZM16.7106 7.37958H4.01741C4.17406 5.57124 5.34711 4.01508 7.03578 3.11405L5.82894 1.34199C5.66619 1.10302 5.72759 0.776955 5.96703 0.614252C6.20619 0.451549 6.53159 0.513424 6.69514 0.752205L8.0105 2.68496C8.73978 2.43277 9.53141 2.28797 10.364 2.28797C11.1976 2.28797 11.9893 2.43277 12.7185 2.68528L14.0338 0.752908C14.1954 0.513471 14.5218 0.451596 14.761 0.614299C15.0004 0.777002 15.0618 1.10306 14.8991 1.34203L13.6932 3.1141C15.3818 4.01456 16.5541 5.57072 16.7106 7.37958ZM8.38892 4.92244C8.38892 4.53464 8.07491 4.22011 7.68725 4.22011C7.29861 4.22011 6.98459 4.53464 6.98459 4.92244C6.98459 5.31005 7.29964 5.62444 7.68725 5.62444C8.07486 5.62444 8.38892 5.31005 8.38892 4.92244ZM13.8324 4.92244C13.8324 4.53464 13.5173 4.22011 13.1297 4.22011C12.7411 4.22011 12.428 4.53464 12.428 4.92244C12.428 5.31005 12.7411 5.62444 13.1297 5.62444C13.5173 5.62444 13.8324 5.31005 13.8324 4.92244ZM19.199 8.33546C18.4042 8.33546 17.7579 8.99096 17.7579 9.79899V15.5168C17.7579 16.3248 18.4042 16.9805 19.199 16.9805C19.9948 16.9805 20.6381 16.3249 20.6381 15.5168V9.79899C20.6382 8.99096 19.9948 8.33546 19.199 8.33546Z" fill="#34FF85"/>
</svg>
