<svg width="27" height="27" viewBox="0 0 27 27" fill="none" xmlns="http://www.w3.org/2000/svg">
<rect x="0.638184" y="0.5" width="26" height="26" rx="10" fill="url(#paint0_angular_153_96)"/>
<path fill-rule="evenodd" clip-rule="evenodd" d="M17.4296 10.0693L17.3761 9.83399C17.3761 7.77317 15.6991 6.09668 13.6379 6.09668C11.5767 6.09668 9.89987 7.77317 9.89987 9.83399L9.8463 10.0693H6.77686L7.60422 17.7825C7.76994 19.3514 9.09304 20.542 10.6708 20.542H16.6051C18.1828 20.542 19.5059 19.3514 19.6716 17.7827L20.4991 10.0693H17.4296ZM11.4713 10.0693L11.5316 9.83399C11.5316 8.67276 12.4765 7.72803 13.6379 7.72803C14.7995 7.72803 15.7444 8.67276 15.7444 9.83399L15.8046 10.0693H11.4713Z" fill="white"/>
<defs>
<radialGradient id="paint0_angular_153_96" cx="0" cy="0" r="1" gradientUnits="userSpaceOnUse" gradientTransform="translate(13.6382 13.5) rotate(88.8309) scale(13.0027)">
<stop offset="0.000415415" stop-color="#F4605E"/>
<stop offset="0.0642377" stop-color="#E94B80"/>
<stop offset="0.128396" stop-color="#DE33A4"/>
<stop offset="0.186654" stop-color="#D41AC8"/>
<stop offset="0.250949" stop-color="#CB06E5"/>
<stop offset="0.281719" stop-color="#C902EC"/>
<stop offset="0.316858" stop-color="#CB04E5"/>
<stop offset="0.371347" stop-color="#D108D3"/>
<stop offset="0.43351" stop-color="#D80DBA"/>
<stop offset="0.504024" stop-color="#E1139E"/>
<stop offset="0.59576" stop-color="#EC1E7B"/>
<stop offset="0.673288" stop-color="#F22A65"/>
<stop offset="0.713795" stop-color="#F5355B"/>
<stop offset="0.754495" stop-color="#F74452"/>
<stop offset="0.818581" stop-color="#F75651"/>
<stop offset="0.878478" stop-color="#F76051"/>
<stop offset="0.938046" stop-color="#F76551"/>
</radialGradient>
</defs>
</svg>
