<svg width="24" height="27" viewBox="0 0 24 27" fill="none" xmlns="http://www.w3.org/2000/svg">
<g filter="url(#filter0_ii_153_203)">
<path d="M0.463001 1.03662C0.172001 1.34462 -4.27246e-07 1.82262 -4.27246e-07 2.44162V24.5576C-4.27246e-07 25.1776 0.172001 25.6546 0.463001 25.9626L0.537 26.0346L12.926 13.6456V13.4996V13.3536L0.537 0.963623L0.463001 1.03662Z" fill="url(#paint0_linear_153_203)"/>
<path d="M17.0548 17.7766L12.9258 13.6456V13.4996V13.3536L17.0558 9.22363L17.1488 9.27663L22.0418 12.0566C23.4388 12.8506 23.4388 14.1496 22.0418 14.9446L17.1488 17.7246L17.0548 17.7766Z" fill="url(#paint1_linear_153_203)"/>
<g filter="url(#filter1_i_153_203)">
<path d="M17.1489 17.7238L12.9249 13.4998L0.462891 25.9628C0.922891 26.4508 1.68389 26.5108 2.54089 26.0248L17.1489 17.7238Z" fill="url(#paint2_linear_153_203)"/>
</g>
<path d="M17.1489 9.27572L2.54089 0.975724C1.68389 0.488724 0.922891 0.549724 0.462891 1.03772L12.9259 13.5007L17.1489 9.27572Z" fill="url(#paint3_linear_153_203)"/>
</g>
<defs>
<filter id="filter0_ii_153_203" x="0" y="0.639648" width="23.0894" height="25.7207" filterUnits="userSpaceOnUse" color-interpolation-filters="sRGB">
<feFlood flood-opacity="0" result="BackgroundImageFix"/>
<feBlend mode="normal" in="SourceGraphic" in2="BackgroundImageFix" result="shape"/>
<feColorMatrix in="SourceAlpha" type="matrix" values="0 0 0 0 0 0 0 0 0 0 0 0 0 0 0 0 0 0 127 0" result="hardAlpha"/>
<feOffset dy="-0.15"/>
<feComposite in2="hardAlpha" operator="arithmetic" k2="-1" k3="1"/>
<feColorMatrix type="matrix" values="0 0 0 0 0 0 0 0 0 0 0 0 0 0 0 0 0 0 0.12 0"/>
<feBlend mode="normal" in2="shape" result="effect1_innerShadow_153_203"/>
<feColorMatrix in="SourceAlpha" type="matrix" values="0 0 0 0 0 0 0 0 0 0 0 0 0 0 0 0 0 0 127 0" result="hardAlpha"/>
<feOffset dy="0.15"/>
<feComposite in2="hardAlpha" operator="arithmetic" k2="-1" k3="1"/>
<feColorMatrix type="matrix" values="0 0 0 0 1 0 0 0 0 1 0 0 0 0 1 0 0 0 0.25 0"/>
<feBlend mode="normal" in2="effect1_innerShadow_153_203" result="effect2_innerShadow_153_203"/>
</filter>
<filter id="filter1_i_153_203" x="0.462891" y="13.4998" width="16.686" height="12.8606" filterUnits="userSpaceOnUse" color-interpolation-filters="sRGB">
<feFlood flood-opacity="0" result="BackgroundImageFix"/>
<feBlend mode="normal" in="SourceGraphic" in2="BackgroundImageFix" result="shape"/>
<feColorMatrix in="SourceAlpha" type="matrix" values="0 0 0 0 0 0 0 0 0 0 0 0 0 0 0 0 0 0 127 0" result="hardAlpha"/>
<feOffset dy="-0.15"/>
<feComposite in2="hardAlpha" operator="arithmetic" k2="-1" k3="1"/>
<feColorMatrix type="matrix" values="0 0 0 0 0 0 0 0 0 0 0 0 0 0 0 0 0 0 0.08 0"/>
<feBlend mode="normal" in2="shape" result="effect1_innerShadow_153_203"/>
</filter>
<linearGradient id="paint0_linear_153_203" x1="11.8278" y1="2.20762" x2="-4.9542" y2="18.9896" gradientUnits="userSpaceOnUse">
<stop stop-color="#00A0FF"/>
<stop offset="0.0066" stop-color="#00A1FF"/>
<stop offset="0.2601" stop-color="#00BEFF"/>
<stop offset="0.5122" stop-color="#00D2FF"/>
<stop offset="0.7604" stop-color="#00DFFF"/>
<stop offset="1" stop-color="#00E3FF"/>
</linearGradient>
<linearGradient id="paint1_linear_153_203" x1="23.8603" y1="13.4996" x2="-0.335618" y2="13.4996" gradientUnits="userSpaceOnUse">
<stop stop-color="#FFE000"/>
<stop offset="0.4087" stop-color="#FFBD00"/>
<stop offset="0.7754" stop-color="#FFA500"/>
<stop offset="1" stop-color="#FF9C00"/>
</linearGradient>
<linearGradient id="paint2_linear_153_203" x1="14.855" y1="15.7937" x2="-7.90351" y2="38.5522" gradientUnits="userSpaceOnUse">
<stop stop-color="#FF3A44"/>
<stop offset="1" stop-color="#C31162"/>
</linearGradient>
<linearGradient id="paint3_linear_153_203" x1="-2.67571" y1="-6.32448" x2="7.48659" y2="3.83783" gradientUnits="userSpaceOnUse">
<stop stop-color="#32A071"/>
<stop offset="0.0685" stop-color="#2DA771"/>
<stop offset="0.4762" stop-color="#15CF74"/>
<stop offset="0.8009" stop-color="#06E775"/>
<stop offset="1" stop-color="#00F076"/>
</linearGradient>
</defs>
</svg>
