<svg width="26" height="27" viewBox="0 0 26 27" fill="none" xmlns="http://www.w3.org/2000/svg">
<path fill-rule="evenodd" clip-rule="evenodd" d="M18.844 0.833172H7.76564C2.54698 0.833172 0.638184 2.74197 0.638184 7.96066V19.0392C0.638184 24.2578 2.54698 26.1665 7.76564 26.1665H18.8406C24.0592 26.1665 25.9715 24.2578 25.9715 19.0392V7.96066C25.9715 2.74197 24.0627 0.833172 18.844 0.833172Z" fill="#C91C2E"/>
<path d="M11.6904 15.5254H12.7064L12.1968 14.3403L11.6904 15.5254ZM11.4403 16.1228L11.1389 16.8124H10.4528L11.912 13.5021H12.5048L13.9581 16.8124H13.2536L12.956 16.1228H11.4403ZM22.4811 16.8101H23.1443V13.5021H22.4811V16.8101ZM19.8419 15.3886H21.064V14.7858H19.8419V14.1077H21.616V13.5042H19.1789V16.8121H21.68V16.2088H19.8419V15.3886ZM17.2069 15.7796L16.4549 13.502H15.9067L15.1547 15.7796L14.4229 13.5036H13.7077L14.8621 16.814H15.4184L16.1715 14.6395L16.9243 16.814H17.4856L18.6371 13.5036H17.9403L17.2069 15.7796ZM9.44053 15.3978C9.44053 15.9364 9.17307 16.2241 8.68747 16.2241C8.1992 16.2241 7.9304 15.9282 7.9304 15.3749V13.504H7.25839V15.3978C7.25839 16.3296 7.77599 16.8638 8.67839 16.8638C9.58959 16.8638 10.1123 16.3194 10.1123 15.3704V13.502H9.44053V15.3978ZM5.65493 13.5021H6.32666V16.8142H5.65493V15.4692H4.13732V16.8142H3.46533V13.5021H4.13732V14.8382H5.65493V13.5021Z" fill="white"/>
<path d="M13.3047 9.28491C10.9796 9.28491 9.08789 7.39315 9.08789 5.06809H9.68362C9.68362 7.06473 11.3079 8.68921 13.3047 8.68921C15.3015 8.68921 16.9258 7.06473 16.9258 5.06809H17.5215C17.5215 7.39315 15.6298 9.28491 13.3047 9.28491Z" fill="white"/>
</svg>
