<svg width="57" height="43" viewBox="0 0 57 43" fill="none" xmlns="http://www.w3.org/2000/svg">
<path d="M11.3929 12.9453C10.6845 13.4806 10.3436 14.9963 10.0098 16.0933H28.2058C42.4191 16.0933 45.4294 16.1028 46.4103 15.7024C47.9095 15.0904 48.7098 12.5161 48.7098 12.5161H30.0897C12.8 12.5161 12.1014 12.4101 11.3929 12.9453Z" fill="url(#paint0_linear_139_1655)"/>
<path d="M26.4092 19.416C23.8575 20.2029 23.4122 20.9584 21.0989 27.0635C20.0019 29.973 19.0957 32.4531 19.0957 32.5724H26.9771C26.9771 32.5724 27.3948 31.4276 27.7525 30.5214C30.0181 24.4164 30.3281 23.7248 31.0197 23.3671C31.5443 23.1047 32.6175 23.0093 35.4792 23.0093C39.8673 23.0093 40.0819 22.9378 40.7019 21.03C40.9166 20.3622 41.3358 19.2175 41.3358 19.2175C41.3358 19.2175 39.7623 19.2278 34.2175 19.2278C30.2826 19.2278 27.1227 19.1959 26.4092 19.416Z" fill="url(#paint1_linear_139_1655)"/>
<defs>
<linearGradient id="paint0_linear_139_1655" x1="6.9713" y1="12.1081" x2="7.07417" y2="17.0598" gradientUnits="userSpaceOnUse">
<stop stop-color="#E3E3E3"/>
<stop offset="1" stop-color="#5D6874"/>
</linearGradient>
<linearGradient id="paint1_linear_139_1655" x1="17.3496" y1="17.7296" x2="19.7894" y2="35.8514" gradientUnits="userSpaceOnUse">
<stop stop-color="#E3E3E3"/>
<stop offset="1" stop-color="#5D6874"/>
</linearGradient>
</defs>
</svg>
