<svg width="17" height="18" viewBox="0 0 17 18" fill="none" xmlns="http://www.w3.org/2000/svg">
<path d="M6.08019 3.41079C7.15684 1.47938 7.69517 0.513672 8.5 0.513672C9.30483 0.513672 9.84316 1.47938 10.9198 3.41079L11.1984 3.91047C11.5043 4.45932 11.6573 4.73374 11.8958 4.91481C12.1343 5.09588 12.4314 5.16309 13.0255 5.29751L13.5664 5.4199C15.6571 5.89294 16.7025 6.12947 16.9512 6.92924C17.1999 7.72902 16.4872 8.56238 15.0619 10.2291L14.6932 10.6603C14.2881 11.1339 14.0856 11.3708 13.9945 11.6637C13.9034 11.9567 13.934 12.2727 13.9953 12.9046L14.051 13.4799C14.2665 15.7037 14.3742 16.8156 13.7231 17.3099C13.072 17.8041 12.0932 17.3535 10.1357 16.4522L9.62924 16.219C9.07296 15.9629 8.79483 15.8348 8.5 15.8348C8.20517 15.8348 7.92704 15.9629 7.37076 16.219L6.86432 16.4522C4.90677 17.3535 3.928 17.8041 3.27688 17.3099C2.62575 16.8156 2.7335 15.7037 2.94899 13.4799L3.00474 12.9046C3.06597 12.2727 3.09659 11.9567 3.00548 11.6637C2.91438 11.3708 2.71186 11.1339 2.30683 10.6603L1.93808 10.2291C0.512762 8.56238 -0.199899 7.72902 0.0488078 6.92924C0.297515 6.12947 1.34288 5.89294 3.43361 5.4199L3.9745 5.29751C4.56862 5.16309 4.86568 5.09588 5.1042 4.91481C5.34272 4.73374 5.4957 4.45932 5.80165 3.91047L6.08019 3.41079Z" fill="#007AFF"/>
</svg>
